#Comment line ignore any data following # character 
#Hierarchical Translation and Rotation (.htr) file 
[Header]	
#Header keywords are followed by a single value 
FileType HTR		#Single word string
DataType HTRS		#Translation followed by rotation and scale data
FileVersion 1		#integer
NumSegments 84		#integer
NumFrames 2		#integer
DataFrameRate 30		#integer, data frame rate in this file
EulerRotationOrder ZYX
CalibrationUnits mm
RotationUnits Degrees
GlobalAxisofGravity Y
BoneLengthAxis Y
ScaleFactor 1.00
[SegmentNames&Hierarchy]
#CHILD	PARENT
MASTER GLOBAL
root MASTER
chest root
L_mid_tent01 root
R_mid_tent01 root
spine01 root
Bip01_Neck chest
L_humerus chest
R_humerus chest
weapon_bone chest
Bip01_Head Bip01_Neck
eye_left_bone Bip01_Head
eye_right_bone Bip01_Head
L_forearm L_humerus
L_front_hand L_forearm
L_weapon_bone L_forearm
L_front_hand01_01 L_front_hand
L_front_hand02_01 L_front_hand
L_front_hand03_01 L_front_hand
L_front_hand01_02 L_front_hand01_01
L_front_hand02_02 L_front_hand02_01
L_front_hand03_02 L_front_hand03_01
R_forearm R_humerus
R_front_hand R_forearm
R_weapon_bone R_forearm
R_front_hand01_01 R_front_hand
R_front_hand02_01 R_front_hand
R_front_hand03_01 R_front_hand
R_front_hand01_02 R_front_hand01_01
R_front_hand02_02 R_front_hand02_01
R_front_hand03_02 R_front_hand03_01
null_rope01_connect L_mid_tent01
Rope1_Seg01 null_rope01_connect
Rope1_Seg02 Rope1_Seg01
Rope1_Seg03 Rope1_Seg02
Rope1_Seg04 Rope1_Seg03
Rope1_Seg05 Rope1_Seg04
Rope1_Seg06 Rope1_Seg05
Rope1_Seg07 Rope1_Seg06
Rope1_Seg09 Rope1_Seg07
L_mid_hand01 Rope1_Seg09
L_mid_hand02 Rope1_Seg09
L_mid_hand03 Rope1_Seg09
null_rope02_connect R_mid_tent01
Rope2_Seg01 null_rope02_connect
Rope2_Seg02 Rope2_Seg01
Rope2_Seg03 Rope2_Seg02
Rope2_Seg04 Rope2_Seg03
Rope2_Seg05 Rope2_Seg04
Rope2_Seg06 Rope2_Seg05
Rope2_Seg07 Rope2_Seg06
Rope2_Seg09 Rope2_Seg07
R_mid_hand01 Rope2_Seg09
R_mid_hand02 Rope2_Seg09
R_mid_hand03 Rope2_Seg09
spine02 spine01
spine03 spine02
pelvis spine03
null_rope03_connect pelvis
null_rope04_connect pelvis
Rope3_Seg01 null_rope03_connect
Rope3_Seg02 Rope3_Seg01
Rope3_Seg03 Rope3_Seg02
Rope3_Seg04 Rope3_Seg03
Rope3_Seg05 Rope3_Seg04
Rope3_Seg06 Rope3_Seg05
Rope3_Seg07 Rope3_Seg06
Rope3_Seg08 Rope3_Seg07
Rope3_Seg09 Rope3_Seg08
R_rear_hand01 Rope3_Seg09
R_rear_hand02 Rope3_Seg09
R_rear_hand03 Rope3_Seg09
Rope4_Seg01 null_rope04_connect
Rope4_Seg02 Rope4_Seg01
Rope4_Seg03 Rope4_Seg02
Rope4_Seg04 Rope4_Seg03
Rope4_Seg05 Rope4_Seg04
Rope4_Seg06 Rope4_Seg05
Rope4_Seg07 Rope4_Seg06
Rope4_Seg08 Rope4_Seg07
Rope4_Seg09 Rope4_Seg08
L_rear_hand01 Rope4_Seg09
L_rear_hand02 Rope4_Seg09
L_rear_hand03 Rope4_Seg09
[BasePosition]
#SegmentName Tx, Ty, Tz, Rx, Ry, Rz, BoneLength
MASTER 0.000000 0.000000 0.000000 -90.000000 0.000000 0.000000 10.000000 
root 0.000000 0.000000 0.000000 0.000000 0.000000 0.000000 10.000000 
chest 0.000000 0.000000 0.000000 0.000000 0.000000 0.000000 10.000000 
L_mid_tent01 0.000000 0.000000 0.000000 0.000000 0.000000 0.000000 10.000000 
R_mid_tent01 0.000000 0.000000 0.000000 0.000000 0.000000 0.000000 10.000000 
spine01 0.000000 0.000000 0.000000 0.000000 0.000000 0.000000 10.000000 
Bip01_Neck 0.000000 0.000000 0.000000 0.000000 0.000000 0.000000 10.000000 
L_humerus 0.000000 0.000000 0.000000 0.000000 0.000000 0.000000 10.000000 
R_humerus 0.000000 0.000000 0.000000 0.000000 0.000000 0.000000 10.000000 
weapon_bone 0.000000 0.000000 0.000000 0.000000 0.000000 0.000000 10.000000 
Bip01_Head 0.000000 0.000000 0.000000 0.000000 0.000000 0.000000 10.000000 
eye_left_bone 0.000000 0.000000 0.000000 0.000000 0.000000 0.000000 10.000000 
eye_right_bone 0.000000 0.000000 0.000000 0.000000 0.000000 0.000000 10.000000 
L_forearm 0.000000 0.000000 0.000000 0.000000 0.000000 0.000000 10.000000 
L_front_hand 0.000000 0.000000 0.000000 0.000000 0.000000 0.000000 10.000000 
L_weapon_bone 0.000000 0.000000 0.000000 0.000000 0.000000 0.000000 10.000000 
L_front_hand01_01 0.000000 0.000000 0.000000 0.000000 0.000000 0.000000 10.000000 
L_front_hand02_01 0.000000 0.000000 0.000000 0.000000 0.000000 0.000000 10.000000 
L_front_hand03_01 0.000000 0.000000 0.000000 0.000000 0.000000 0.000000 10.000000 
L_front_hand01_02 0.000000 0.000000 0.000000 0.000000 0.000000 0.000000 10.000000 
L_front_hand02_02 0.000000 0.000000 0.000000 0.000000 0.000000 0.000000 10.000000 
L_front_hand03_02 0.000000 0.000000 0.000000 0.000000 0.000000 0.000000 10.000000 
R_forearm 0.000000 0.000000 0.000000 0.000000 0.000000 0.000000 10.000000 
R_front_hand 0.000000 0.000000 0.000000 0.000000 0.000000 0.000000 10.000000 
R_weapon_bone 0.000000 0.000000 0.000000 0.000000 0.000000 0.000000 10.000000 
R_front_hand01_01 0.000000 0.000000 0.000000 0.000000 0.000000 0.000000 10.000000 
R_front_hand02_01 0.000000 0.000000 0.000000 0.000000 0.000000 0.000000 10.000000 
R_front_hand03_01 0.000000 0.000000 0.000000 0.000000 0.000000 0.000000 10.000000 
R_front_hand01_02 0.000000 0.000000 0.000000 0.000000 0.000000 0.000000 10.000000 
R_front_hand02_02 0.000000 0.000000 0.000000 0.000000 0.000000 0.000000 10.000000 
R_front_hand03_02 0.000000 0.000000 0.000000 0.000000 0.000000 0.000000 10.000000 
null_rope01_connect 0.000000 0.000000 0.000000 0.000000 0.000000 0.000000 10.000000 
Rope1_Seg01 0.000000 0.000000 0.000000 0.000000 0.000000 0.000000 10.000000 
Rope1_Seg02 0.000000 0.000000 0.000000 0.000000 0.000000 0.000000 10.000000 
Rope1_Seg03 0.000000 0.000000 0.000000 0.000000 0.000000 0.000000 10.000000 
Rope1_Seg04 0.000000 0.000000 0.000000 0.000000 0.000000 0.000000 10.000000 
Rope1_Seg05 0.000000 0.000000 0.000000 0.000000 0.000000 0.000000 10.000000 
Rope1_Seg06 0.000000 0.000000 0.000000 0.000000 0.000000 0.000000 10.000000 
Rope1_Seg07 0.000000 0.000000 0.000000 0.000000 0.000000 0.000000 10.000000 
Rope1_Seg09 0.000000 0.000000 0.000000 0.000000 0.000000 0.000000 10.000000 
L_mid_hand01 0.000000 0.000000 0.000000 0.000000 0.000000 0.000000 10.000000 
L_mid_hand02 0.000000 0.000000 0.000000 0.000000 0.000000 0.000000 10.000000 
L_mid_hand03 0.000000 0.000000 0.000000 0.000000 0.000000 0.000000 10.000000 
null_rope02_connect 0.000000 0.000000 0.000000 0.000000 0.000000 0.000000 10.000000 
Rope2_Seg01 0.000000 0.000000 0.000000 0.000000 0.000000 0.000000 10.000000 
Rope2_Seg02 0.000000 0.000000 0.000000 0.000000 0.000000 0.000000 10.000000 
Rope2_Seg03 0.000000 0.000000 0.000000 0.000000 0.000000 0.000000 10.000000 
Rope2_Seg04 0.000000 0.000000 0.000000 0.000000 0.000000 0.000000 10.000000 
Rope2_Seg05 0.000000 0.000000 0.000000 0.000000 0.000000 0.000000 10.000000 
Rope2_Seg06 0.000000 0.000000 0.000000 0.000000 0.000000 0.000000 10.000000 
Rope2_Seg07 0.000000 0.000000 0.000000 0.000000 0.000000 0.000000 10.000000 
Rope2_Seg09 0.000000 0.000000 0.000000 0.000000 0.000000 0.000000 10.000000 
R_mid_hand01 0.000000 0.000000 0.000000 0.000000 0.000000 0.000000 10.000000 
R_mid_hand02 0.000000 0.000000 0.000000 0.000000 0.000000 0.000000 10.000000 
R_mid_hand03 0.000000 0.000000 0.000000 0.000000 0.000000 0.000000 10.000000 
spine02 0.000000 0.000000 0.000000 0.000000 0.000000 0.000000 10.000000 
spine03 0.000000 0.000000 0.000000 0.000000 0.000000 0.000000 10.000000 
pelvis 0.000000 0.000000 0.000000 0.000000 0.000000 0.000000 10.000000 
null_rope03_connect 0.000000 0.000000 0.000000 0.000000 0.000000 0.000000 10.000000 
null_rope04_connect 0.000000 0.000000 0.000000 0.000000 0.000000 0.000000 10.000000 
Rope3_Seg01 0.000000 0.000000 0.000000 0.000000 0.000000 0.000000 10.000000 
Rope3_Seg02 0.000000 0.000000 0.000000 0.000000 0.000000 0.000000 10.000000 
Rope3_Seg03 0.000000 0.000000 0.000000 0.000000 0.000000 0.000000 10.000000 
Rope3_Seg04 0.000000 0.000000 0.000000 0.000000 0.000000 0.000000 10.000000 
Rope3_Seg05 0.000000 0.000000 0.000000 0.000000 0.000000 0.000000 10.000000 
Rope3_Seg06 0.000000 0.000000 0.000000 0.000000 0.000000 0.000000 10.000000 
Rope3_Seg07 0.000000 0.000000 0.000000 0.000000 0.000000 0.000000 10.000000 
Rope3_Seg08 0.000000 0.000000 0.000000 0.000000 0.000000 0.000000 10.000000 
Rope3_Seg09 0.000000 0.000000 0.000000 0.000000 0.000000 0.000000 10.000000 
R_rear_hand01 0.000000 0.000000 0.000000 0.000000 0.000000 0.000000 10.000000 
R_rear_hand02 0.000000 0.000000 0.000000 0.000000 0.000000 0.000000 10.000000 
R_rear_hand03 0.000000 0.000000 0.000000 0.000000 0.000000 0.000000 10.000000 
Rope4_Seg01 0.000000 0.000000 0.000000 0.000000 0.000000 0.000000 10.000000 
Rope4_Seg02 0.000000 0.000000 0.000000 0.000000 0.000000 0.000000 10.000000 
Rope4_Seg03 0.000000 0.000000 0.000000 0.000000 0.000000 0.000000 10.000000 
Rope4_Seg04 0.000000 0.000000 0.000000 0.000000 0.000000 0.000000 10.000000 
Rope4_Seg05 0.000000 0.000000 0.000000 0.000000 0.000000 0.000000 10.000000 
Rope4_Seg06 0.000000 0.000000 0.000000 0.000000 0.000000 0.000000 10.000000 
Rope4_Seg07 0.000000 0.000000 0.000000 0.000000 0.000000 0.000000 10.000000 
Rope4_Seg08 0.000000 0.000000 0.000000 0.000000 0.000000 0.000000 10.000000 
Rope4_Seg09 0.000000 0.000000 0.000000 0.000000 0.000000 0.000000 10.000000 
L_rear_hand01 0.000000 0.000000 0.000000 0.000000 0.000000 0.000000 10.000000 
L_rear_hand02 0.000000 0.000000 0.000000 0.000000 0.000000 0.000000 10.000000 
L_rear_hand03 0.000000 0.000000 0.000000 0.000000 0.000000 0.000000 10.000000 
#Beginning of Data. Separated by tabs
#Fr	Tx	Ty	Tz	Rx	Ry	Rz	SF
[MASTER]
6 -0.000249 1455.612061 10.067048 0.001660 0.001660 0.001660 1455.646851
7 -0.000294 1701.933472 31.709061 0.001660 0.001660 0.001660 1702.228882
[root]
6 -23.557631 -14.270640 1466.239136 -86.591621 -5.099267 -91.588280 1466.497803
7 -25.980764 -19.552509 1472.393555 -85.201485 -4.367274 -92.157043 1472.752563
[chest]
6 -84.512650 -34.090519 0.000000 -2.139961 0.145462 170.358276 91.129311
7 -84.512650 -34.090519 0.000000 -2.127132 0.201147 171.166183 91.129311
[L_mid_tent01]
6 27.299114 22.179167 -249.918701 -8.479170 3.727217 16.086679 252.381683
7 27.299116 22.179169 -249.918701 -6.118684 2.004956 16.487221 252.381683
[R_mid_tent01]
6 23.228794 24.509907 226.238495 175.224045 -5.593417 24.000057 228.744751
7 23.228794 24.509907 226.238495 174.186081 -4.939106 23.874468 228.744751
[spine01]
6 -0.361383 -0.195265 0.000000 0.002056 0.001132 32.328472 0.410763
7 -0.361383 -0.195265 0.000000 0.002062 0.001122 32.879829 0.410763
[Bip01_Neck]
6 165.484543 71.581718 0.000119 176.643677 -1.657967 43.431915 180.302734
7 165.484543 71.581718 0.000119 176.643677 -1.657967 43.431911 180.302734
[L_humerus]
6 -13.983130 -135.272980 -120.471481 -6.771747 64.898087 83.115219 181.680161
7 -13.983130 -135.272980 -120.471481 -6.878245 64.472504 82.992706 181.680161
[R_humerus]
6 -13.983309 -135.273102 125.287651 26.023819 -65.732658 69.681465 184.909012
7 -13.983309 -135.273102 125.287651 25.871088 -65.289246 69.844536 184.909012
[weapon_bone]
6 235.964890 -300.705902 0.000000 0.000000 -89.951546 -128.212341 382.234833
7 235.964890 -300.705902 0.000000 0.000000 -89.951546 -128.212341 382.234833
[Bip01_Head]
6 213.458084 185.677414 12.267479 4.983087 9.611635 -43.777290 283.180054
7 213.517761 185.511169 14.415321 4.982295 8.427112 -43.807419 283.217285
[eye_left_bone]
6 -24.626970 125.451866 -64.772606 0.000000 -90.000000 -99.840431 143.318359
7 -24.626970 125.451866 -64.772606 0.000000 -90.000000 -99.840431 143.318359
[eye_right_bone]
6 -24.626970 125.451866 64.327362 0.000000 -89.965736 80.156380 143.117676
7 -24.626970 125.451866 64.327362 0.000000 -89.965736 80.156380 143.117676
[L_forearm]
6 322.776093 0.000000 -0.000119 0.000423 -0.002309 -110.771606 322.776093
7 322.776093 0.000000 -0.000119 0.000426 -0.002308 -110.909760 322.776093
[L_front_hand]
6 241.149185 -0.042021 -3.300071 -178.667953 -1.835447 -27.422350 241.171753
7 241.149185 -0.042021 -3.300071 -178.667953 -1.835447 -27.422342 241.171753
[L_weapon_bone]
6 156.183838 0.000000 0.000000 0.000014 0.000007 0.000001 156.183838
7 156.183838 0.000000 0.000000 0.000014 0.000007 0.000001 156.183838
[L_front_hand01_01]
6 86.095154 20.947098 -0.655860 -0.349230 -0.490139 73.139862 88.609184
7 86.095154 20.947098 -0.655860 -0.335131 -0.500211 71.723785 88.609184
[L_front_hand02_01]
6 86.935165 -11.437475 24.513514 151.025055 -58.854893 -57.448074 91.046425
7 86.935165 -11.437475 24.513514 149.028946 -58.148323 -55.100948 91.046425
[L_front_hand03_01]
6 86.637497 -14.123976 -20.424902 -150.781433 57.074539 -58.996449 90.126129
7 86.637497 -14.123976 -20.424902 -148.918808 56.366669 -56.764694 90.126129
[L_front_hand01_02]
6 71.020905 -0.000179 0.000030 0.000318 -0.002326 -105.574486 71.020905
7 71.020905 -0.000179 0.000030 0.000317 -0.002326 -105.537254 71.020905
[L_front_hand02_02]
6 71.020927 -0.000119 0.000060 0.000318 -0.002326 -105.574486 71.020927
7 71.020927 -0.000119 0.000060 0.000317 -0.002326 -105.537254 71.020927
[L_front_hand03_02]
6 71.020905 -0.000060 0.000060 0.000318 -0.002326 -105.574486 71.020905
7 71.020905 -0.000060 0.000060 0.000317 -0.002326 -105.537254 71.020905
[R_forearm]
6 322.776428 -0.000060 0.000030 0.201313 0.067557 -109.425781 322.776428
7 322.776428 -0.000060 0.000030 0.201228 0.067812 -109.571129 322.776428
[R_front_hand]
6 238.847015 -0.006795 2.210259 -2.635298 -10.645461 -26.312506 238.857239
7 238.847015 -0.006795 2.210259 -2.635298 -10.645461 -26.312506 238.857239
[R_weapon_bone]
6 155.664093 0.002503 -0.000030 0.003487 0.001180 -90.988930 155.664078
7 155.664093 0.002503 -0.000030 0.003487 0.001180 -90.988930 155.664078
[R_front_hand01_01]
6 87.624611 14.231146 22.918642 -151.601074 -59.040489 58.224773 91.683487
7 87.624611 14.231146 22.918642 -149.707169 -58.394512 56.007454 91.683487
[R_front_hand02_01]
6 89.356956 14.367283 -19.491137 151.761566 57.399368 60.393955 92.579636
7 89.356956 14.367283 -19.491137 149.983459 56.758793 58.275940 92.579636
[R_front_hand03_01]
6 87.286232 -22.307278 -0.143439 0.146836 -0.431871 -73.769867 90.091743
7 87.286232 -22.307278 -0.143439 0.134949 -0.432464 -72.452232 90.091743
[R_front_hand01_02]
6 71.020905 0.000060 0.000119 0.002323 -0.000334 106.381714 71.020905
7 71.020905 0.000060 0.000119 0.002323 -0.000334 106.381714 71.020905
[R_front_hand02_02]
6 71.020844 -0.000030 -0.000119 0.002323 -0.000334 106.381714 71.020836
7 71.020844 -0.000030 -0.000119 0.002323 -0.000334 106.381714 71.020836
[R_front_hand03_02]
6 71.020905 0.000000 0.000030 0.002323 -0.000334 106.381714 71.020905
7 71.020905 0.000000 0.000030 0.002323 -0.000334 106.381714 71.020905
[null_rope01_connect]
6 328.732483 0.000000 -0.000238 -149.737778 -83.459229 -131.639816 328.732483
7 328.732483 0.000000 -0.000238 -123.318169 -87.050179 -158.946762 328.732483
[Rope1_Seg01]
6 -0.000006 0.000032 0.000025 -15.371105 8.824604 -77.225349 0.000041
7 -0.000008 0.000031 0.000031 -15.185640 9.121473 -78.711258 0.000044
[Rope1_Seg02]
6 139.999863 -0.000179 0.000000 5.642921 3.511932 -10.357382 139.999863
7 139.999863 -0.000179 0.000000 5.110563 3.972714 -9.994116 139.999863
[Rope1_Seg03]
6 139.999924 0.000060 -0.000060 12.050027 2.306967 -11.294430 139.999924
7 139.999924 0.000060 -0.000060 11.633312 2.937315 -11.035834 139.999924
[Rope1_Seg04]
6 139.999924 -0.000060 -0.000119 31.942944 -1.642027 -13.471184 139.999924
7 139.999924 -0.000060 -0.000119 36.411598 -1.047343 -13.885098 139.999924
[Rope1_Seg05]
6 139.999832 0.000119 -0.000060 14.484160 -0.839171 -5.122074 139.999832
7 139.999832 0.000119 -0.000060 16.674334 -0.639391 -5.182259 139.999832
[Rope1_Seg06]
6 139.999954 0.000119 -0.000060 -14.779691 5.425957 -1.766016 139.999954
7 139.999954 0.000119 -0.000060 -23.500500 6.382323 -2.232747 139.999954
[Rope1_Seg07]
6 139.999985 0.000060 0.000000 -13.393353 3.394378 -0.840370 139.999985
7 139.999985 0.000060 0.000000 -29.430422 4.175499 -0.271566 139.999985
[Rope1_Seg09]
6 121.602913 0.000119 -0.000089 -89.793175 -1.359789 0.847147 121.602913
7 121.602913 0.000119 -0.000089 -89.793175 -1.359789 0.847147 121.602913
[L_mid_hand01]
6 103.859421 1.038730 8.195221 112.493240 -49.600185 -18.031643 104.187431
7 103.859421 1.038730 8.195221 110.549706 -45.072773 -15.392938 104.187431
[L_mid_hand02]
6 105.572853 -4.139662 -10.864139 -152.303986 36.371010 -47.886745 106.211075
7 105.572853 -4.139662 -10.864139 -149.303925 33.991974 -42.687023 106.211075
[L_mid_hand03]
6 104.641464 17.579376 -3.913581 -12.027911 14.512395 53.523804 106.179977
7 104.641464 17.579376 -3.913581 -13.209491 13.449579 48.630810 106.179977
[null_rope02_connect]
6 328.732849 0.000179 -0.000119 -96.785728 84.418747 11.659306 328.732849
7 328.732849 0.000179 -0.000119 -100.862259 85.131523 8.092833 328.732849
[Rope2_Seg01]
6 0.000045 0.000127 0.000000 91.527641 -0.833733 -99.097984 0.000135
7 0.000046 0.000122 0.000000 91.096992 -1.785994 -99.479919 0.000130
[Rope2_Seg02]
6 139.999741 -0.000060 -0.000119 -1.413496 9.839512 -2.825832 139.999756
7 139.999741 -0.000060 -0.000119 -0.870974 9.600442 -3.531376 139.999756
[Rope2_Seg03]
6 140.000107 0.000030 0.000000 -2.925722 12.162044 -3.235867 140.000107
7 140.000107 0.000030 0.000000 -1.735617 11.946926 -4.283760 140.000107
[Rope2_Seg04]
6 139.999802 0.000000 -0.000060 -14.511714 19.259254 -3.550243 139.999802
7 139.999802 0.000000 -0.000060 -9.134263 18.830009 -5.650591 139.999802
[Rope2_Seg05]
6 139.999985 -0.000060 0.000119 -56.104092 15.109572 0.954324 139.999985
7 139.999985 -0.000060 0.000119 -59.571434 15.450171 -2.268917 139.999985
[Rope2_Seg06]
6 139.999893 -0.000030 -0.000119 24.538404 -0.187867 -3.481354 139.999893
7 139.999893 -0.000030 -0.000119 36.167892 -0.426219 -3.087696 139.999893
[Rope2_Seg07]
6 139.999893 0.000060 -0.000060 52.603905 -13.268097 -14.035982 139.999893
7 139.999893 0.000060 -0.000060 40.771008 -16.352575 -8.208028 139.999893
[Rope2_Seg09]
6 121.338966 0.000089 -0.000060 33.793236 -1.359788 -0.847141 121.338966
7 121.338966 0.000089 -0.000060 33.793236 -1.359788 -0.847141 121.338966
[R_mid_hand01]
6 104.680779 11.144459 -10.335981 -25.740593 41.350704 56.606117 105.778534
7 104.680779 11.144459 -10.335981 -28.447895 39.731529 52.443096 105.778534
[R_mid_hand02]
6 104.070427 2.443552 8.231699 61.371151 -58.827457 25.571609 104.424065
7 104.070427 2.443552 8.231699 63.907383 -55.672989 22.555904 104.424065
[R_mid_hand03]
6 106.028137 -11.221827 -5.996406 -174.179749 14.727765 -65.439743 106.788818
7 106.028137 -11.221827 -5.996406 -173.262527 14.339042 -61.789948 106.788818
[spine02]
6 129.756927 0.001550 0.000119 0.492616 -4.029785 -14.863955 129.756927
7 129.756927 0.001550 0.000119 0.509829 -4.027578 -15.074185 129.756927
[spine03]
6 78.614037 0.081609 -4.899011 1.978833 3.789432 17.691105 78.766571
7 78.614029 0.081604 -4.899010 1.982976 3.787268 17.816422 78.766563
[pelvis]
6 169.435242 0.051022 0.000000 -0.069214 -0.178174 16.548162 169.435257
7 169.435242 0.051022 0.000000 -0.069626 -0.178013 16.813084 169.435257
[null_rope03_connect]
6 -1.257226 -2.466202 137.391083 -18.483482 -85.107033 61.940281 137.418976
7 -1.257226 -2.466202 137.391083 -19.057577 -83.613892 61.091869 137.418976
[null_rope04_connect]
6 -1.259640 -2.480268 -137.844437 -18.483482 -85.107033 61.940281 137.872513
7 -1.259640 -2.480268 -137.844437 -19.057577 -83.613892 61.091869 137.872513
[Rope3_Seg01]
6 0.000010 0.000038 -0.000114 -132.349731 9.680797 -89.153397 0.000121
7 0.000010 0.000038 -0.000114 -132.653320 11.888186 -87.630539 0.000121
[Rope3_Seg02]
6 139.999924 -0.000119 0.000060 -0.254493 -2.324770 -0.784658 139.999924
7 139.999924 -0.000119 0.000060 -0.107598 -1.264856 -0.407673 139.999924
[Rope3_Seg03]
6 139.999924 -0.000119 0.000119 -0.226961 -2.512715 -0.854127 139.999924
7 139.999924 -0.000119 0.000119 -0.111627 -1.388560 -0.447077 139.999924
[Rope3_Seg04]
6 139.999924 0.000119 0.000000 -0.412684 -3.784298 -0.489440 139.999924
7 139.999924 0.000119 0.000000 -0.461928 -2.250039 0.935769 139.999924
[Rope3_Seg05]
6 139.999924 -0.000238 0.000060 0.033627 -2.372207 -1.305003 139.999924
7 139.999924 -0.000238 0.000060 0.056150 -1.471699 -1.161416 139.999924
[Rope3_Seg06]
6 139.999893 -0.000119 -0.000060 0.540165 0.977630 -2.402579 139.999893
7 139.999893 -0.000119 -0.000060 0.786271 0.975622 -5.548155 139.999893
[Rope3_Seg07]
6 139.999771 0.000060 -0.000119 0.568877 0.669342 -1.973454 139.999771
7 139.999771 0.000060 -0.000119 0.610174 0.748778 -4.590292 139.999771
[Rope3_Seg08]
6 139.999985 -0.000060 0.000000 0.554212 0.121795 -1.318300 139.999985
7 139.999985 -0.000060 0.000000 0.520289 0.236962 -2.791887 139.999985
[Rope3_Seg09]
6 90.185997 -0.000179 -0.000060 89.793228 -1.359877 -0.847183 90.185997
7 90.185997 -0.000179 -0.000060 89.793228 -1.359877 -0.847183 90.185997
[R_rear_hand01]
6 103.366196 -6.073594 -10.757982 -171.684540 23.302565 -59.125771 104.101845
7 103.366196 -6.073594 -10.757982 -169.896027 22.621880 -54.548431 104.101845
[R_rear_hand02]
6 100.509819 12.039542 -7.992327 -21.930750 32.777496 56.381863 101.543350
7 100.509819 12.039542 -7.992327 -24.381289 31.099262 51.752331 101.543350
[R_rear_hand03]
6 101.539970 5.215704 5.435467 79.009171 -58.663548 13.282337 101.819031
7 101.539970 5.215704 5.435467 80.187729 -54.464619 11.876325 101.819031
[Rope4_Seg01]
6 0.000010 0.000038 -0.000114 53.177444 11.105980 -64.469978 0.000121
7 0.000010 0.000038 -0.000114 50.254059 7.410583 -63.437534 0.000121
[Rope4_Seg02]
6 139.999985 0.000060 0.000119 2.655159 -6.741763 -6.868457 139.999985
7 139.999985 0.000060 0.000119 3.895296 -5.547785 -8.304184 139.999985
[Rope4_Seg03]
6 139.999924 0.000000 -0.000238 2.515482 -9.419523 -8.925192 139.999924
7 139.999924 0.000000 -0.000238 3.541238 -8.044242 -10.648456 139.999924
[Rope4_Seg04]
6 139.999985 0.000000 0.000119 3.173822 -16.093924 -15.742572 139.999985
7 139.999985 0.000000 0.000119 3.833965 -12.974081 -18.382023 139.999985
[Rope4_Seg05]
6 139.999802 -0.000060 -0.000119 0.249407 -10.469857 -8.775545 139.999802
7 139.999802 -0.000060 -0.000119 0.219175 -9.353461 -10.122497 139.999802
[Rope4_Seg06]
6 139.999924 0.000000 0.000060 1.423441 4.583610 7.017698 139.999924
7 139.999924 0.000000 0.000060 1.623458 1.163282 8.305705 139.999924
[Rope4_Seg07]
6 139.999802 0.000000 0.000000 0.834570 4.829901 6.574697 139.999802
7 139.999802 0.000000 0.000000 1.107332 2.444869 9.008427 139.999802
[Rope4_Seg08]
6 139.999924 0.000000 0.000119 -1.386440 1.311302 2.340435 139.999924
7 139.999924 0.000000 0.000119 -1.319992 0.153083 3.264712 139.999924
[Rope4_Seg09]
6 90.185791 0.000060 0.000060 -135.617828 2.228885 0.850567 90.185791
7 90.185791 0.000060 0.000060 -135.617828 2.228885 0.850567 90.185791
[L_rear_hand01]
6 101.696655 -8.392275 -7.654577 -30.719053 -24.879360 141.681381 102.329041
7 101.696655 -8.392275 -7.654577 -31.684452 -23.583008 144.025742 102.329041
[L_rear_hand02]
6 102.726799 -1.568258 5.773216 82.428497 41.230476 171.131027 102.900848
7 102.726799 -1.568258 5.773216 82.701553 38.753956 171.553619 102.900848
[L_rear_hand03]
6 104.552910 9.721220 -10.420293 -164.822937 -19.676035 -139.457687 105.519653
7 104.552910 9.721220 -10.420293 -163.975403 -19.004421 -142.009338 105.519653
